<svg xmlns="http://www.w3.org/2000/svg" xmlns:xlink="http://www.w3.org/1999/xlink" width="200" zoomAndPan="magnify" viewBox="0 0 150 149.999998" height="200" preserveAspectRatio="xMidYMid meet" version="1.0"><path stroke-linecap="butt" transform="matrix(0.75, 0, 0, 0.75, 34.641404, 125.625698)" fill="none" stroke-linejoin="miter" d="M -0.00103913 1.99907 L 102.452092 1.99907 " stroke="#000000" stroke-width="4" stroke-opacity="1" stroke-miterlimit="4"/><path stroke-linecap="butt" transform="matrix(0, -0.75, 0.75, 0, 48.588522, 127.122796)" fill="none" stroke-linejoin="miter" d="M 0.00226991 2.001763 L 119.819985 2.001763 " stroke="#000000" stroke-width="4" stroke-opacity="1" stroke-miterlimit="4"/><path stroke-linecap="butt" transform="matrix(0.616404, -0.427254, 0.427254, 0.616404, 48.38217, 36.942184)" fill="none" stroke-linejoin="miter" d="M 0.00115719 2.002083 L 40.408485 1.99977 " stroke="#000000" stroke-width="4" stroke-opacity="1" stroke-miterlimit="4"/><path stroke-linecap="butt" transform="matrix(0.00313227, -0.749993, 0.749993, 0.00313227, 71.557468, 127.115474)" fill="none" stroke-linejoin="miter" d="M 0.000865756 2.001515 L 140.028128 2.000044 " stroke="#000000" stroke-width="4" stroke-opacity="1" stroke-miterlimit="4"/><path stroke-linecap="butt" transform="matrix(-0.615305, -0.428835, 0.428835, -0.615305, 98.600158, 72.930187)" fill="none" stroke-linejoin="miter" d="M 0.00114434 1.999784 L 42.193385 2.000179 " stroke="#000000" stroke-width="4" stroke-opacity="1" stroke-miterlimit="4"/><path stroke-linecap="butt" transform="matrix(0, -0.75, 0.75, 0, 97.207781, 127.122079)" fill="none" stroke-linejoin="miter" d="M 0.00131311 1.999 L 75.902359 1.999 " stroke="#000000" stroke-width="4" stroke-opacity="1" stroke-miterlimit="4"/></svg>