<svg xmlns="http://www.w3.org/2000/svg" xmlns:xlink="http://www.w3.org/1999/xlink" width="200" zoomAndPan="magnify" viewBox="0 0 150 149.999998" height="200" preserveAspectRatio="xMidYMid meet" version="1.0"><path stroke-linecap="butt" transform="matrix(0.75, 0, 0, 0.75, 33.598681, 125.475669)" fill="none" stroke-linejoin="miter" d="M -0.00136629 2.001191 L 103.84239 2.001191 " stroke="#000000" stroke-width="4" stroke-opacity="1" stroke-miterlimit="4"/><path stroke-linecap="butt" transform="matrix(0, -0.75, 0.75, 0, 53.337289, 126.973588)" fill="none" stroke-linejoin="miter" d="M 0.00124259 1.998199 L 101.631457 1.998199 " stroke="#000000" stroke-width="4" stroke-opacity="1" stroke-miterlimit="4"/><path stroke-linecap="butt" transform="matrix(0, -0.75, 0.75, 0, 72.672273, 126.973588)" fill="none" stroke-linejoin="miter" d="M 0.00124259 1.999469 L 101.631457 1.999469 " stroke="#000000" stroke-width="4" stroke-opacity="1" stroke-miterlimit="4"/><path stroke-linecap="butt" transform="matrix(0, -0.75, 0.75, 0, 92.173657, 126.974995)" fill="none" stroke-linejoin="miter" d="M -0.00209054 1.997625 L 126.2375 1.997625 " stroke="#000000" stroke-width="4" stroke-opacity="1" stroke-miterlimit="4"/><path stroke-linecap="butt" transform="matrix(-0.75, 0, 0, -0.75, 75.686524, 53.752763)" fill="none" stroke-linejoin="miter" d="M -0.00130129 1.998476 L 29.800784 1.998476 " stroke="#000000" stroke-width="4" stroke-opacity="1" stroke-miterlimit="4"/><path stroke-linecap="butt" transform="matrix(-0.75, 0, 0, -0.75, 92.40475, 35.298472)" fill="none" stroke-linejoin="miter" d="M -0.00199965 2.002129 L 39.201128 2.002129 " stroke="#000000" stroke-width="4" stroke-opacity="1" stroke-miterlimit="4"/><path stroke-linecap="butt" transform="matrix(-0.00732827, -0.749964, 0.749964, -0.00732827, 63.189475, 52.277166)" fill="none" stroke-linejoin="miter" d="M 0.00107923 1.997473 L 24.606415 1.998309 " stroke="#000000" stroke-width="4" stroke-opacity="1" stroke-miterlimit="4"/><path stroke-linecap="butt" transform="matrix(0.000000001309, -0.75, 0.75, 0.000000001309, 78.283869, 33.783442)" fill="none" stroke-linejoin="miter" d="M -0.0022852 2.001717 L 19.393549 2.001717 " stroke="#000000" stroke-width="4" stroke-opacity="1" stroke-miterlimit="4"/></svg>