<svg xmlns="http://www.w3.org/2000/svg" xmlns:xlink="http://www.w3.org/1999/xlink" width="200" zoomAndPan="magnify" viewBox="0 0 150 149.999998" height="200" preserveAspectRatio="xMidYMid meet" version="1.0"><path stroke-linecap="butt" transform="matrix(0.75, 0, 0, 0.75, 33.513771, 124.891372)" fill="none" stroke-linejoin="miter" d="M 0.0024715 2.499004 L 103.955603 2.499004 " stroke="#000000" stroke-width="5" stroke-opacity="1" stroke-miterlimit="4"/><path stroke-linecap="butt" transform="matrix(0, -0.75, 0.75, 0, 37.9127, 125.051421)" fill="none" stroke-linejoin="miter" d="M 0.00085314 2.501816 L 44.469606 2.501816 " stroke="#000000" stroke-width="5" stroke-opacity="1" stroke-miterlimit="4"/><path stroke-linecap="butt" transform="matrix(0, -0.75, 0.75, 0, 45.529895, 91.541363)" fill="none" stroke-linejoin="miter" d="M -0.00214092 2.501807 L 19.586402 2.501807 " stroke="#000000" stroke-width="5" stroke-opacity="1" stroke-miterlimit="4"/><path stroke-linecap="butt" transform="matrix(0, -0.75, 0.75, 0, 101.766785, 125.055816)" fill="none" stroke-linejoin="miter" d="M 0.00150401 2.498454 L 64.267133 2.498454 " stroke="#000000" stroke-width="5" stroke-opacity="1" stroke-miterlimit="4"/><path stroke-linecap="butt" transform="matrix(-0.735904, 0.144726, -0.144726, -0.735904, 91.118888, 85.170818)" fill="none" stroke-linejoin="miter" d="M -0.000717628 2.498537 L 69.684197 2.497571 " stroke="#000000" stroke-width="5" stroke-opacity="1" stroke-miterlimit="4"/><path stroke-linecap="butt" transform="matrix(-0.724444, 0.194114, -0.194114, -0.724444, 93.487093, 67.96494)" fill="none" stroke-linejoin="miter" d="M 0.00181436 2.502537 L 62.950062 2.497702 " stroke="#000000" stroke-width="5" stroke-opacity="1" stroke-miterlimit="4"/><path stroke-linecap="butt" transform="matrix(-0.556851, -0.502411, 0.502411, -0.556851, 102.38171, 97.153093)" fill="none" stroke-linejoin="miter" d="M 0.000337261 2.498344 L 25.865837 2.500098 " stroke="#000000" stroke-width="5" stroke-opacity="1" stroke-miterlimit="4"/><path stroke-linecap="butt" transform="matrix(-0.569731, -0.487756, 0.487756, -0.569731, 104.072918, 79.795075)" fill="none" stroke-linejoin="miter" d="M -0.000970117 2.500221 L 25.051115 2.499245 " stroke="#000000" stroke-width="5" stroke-opacity="1" stroke-miterlimit="4"/><path stroke-linecap="butt" transform="matrix(0, 0.75, -0.75, 0, 48.151702, 106.5827)" fill="none" stroke-linejoin="miter" d="M -0.000891377 0.999145 L 24.639735 0.999145 " stroke="#000000" stroke-width="2" stroke-opacity="1" stroke-miterlimit="4"/><path stroke-linecap="butt" transform="matrix(0, 0.75, -0.75, 0, 95.18694, 106.577984)" fill="none" stroke-linejoin="miter" d="M 0.000188289 0.999254 L 26.93769 0.999254 " stroke="#000000" stroke-width="2" stroke-opacity="1" stroke-miterlimit="4"/><path stroke-linecap="butt" transform="matrix(0.75, -0.000000000000000372, 0.000000000000000372, 0.75, 46.552609, 105.827134)" fill="none" stroke-linejoin="miter" d="M -0.00243691 1.001321 L 64.98715 1.001321 " stroke="#000000" stroke-width="2" stroke-opacity="1" stroke-miterlimit="4"/></svg>